<svg aria-hidden="true" style="position: absolute; width: 0; height: 0; overflow: hidden;" version="1.1" xmlns="http://www.w3.org/2000/svg" xmlns:xlink="http://www.w3.org/1999/xlink">
<defs>
<symbol id="icon-bar" viewBox="0 0 42 32">
<path fill="none" stroke="#fbfbfb" stroke-width="4.8" stroke-miterlimit="4" stroke-linecap="round" stroke-linejoin="round" style="stroke: var(--color1, #fbfbfb)" d="M3.733 3.2h34.133M3.733 16h17.067M3.733 28.8h34.133"></path>
</symbol>
<symbol id="icon-logo" viewBox="0 0 336 32">
<path fill="#fbfbfb" style="fill: var(--color1, #fbfbfb)" d="M29.082 0.314h-4.009c-1.237 0-2.24 0.983-2.24 2.195v3.929c0 1.212 1.003 2.195 2.24 2.195h4.009c1.237 0 2.24-0.983 2.24-2.195v-3.929c0-1.212-1.003-2.195-2.24-2.195z"></path>
<path fill="#fbfbfb" style="fill: var(--color1, #fbfbfb)" d="M6.73 23.040h-4.318c-1.332 0-2.412 0.983-2.412 2.195v3.929c0 1.213 1.080 2.195 2.412 2.195h4.318c1.332 0 2.412-0.983 2.412-2.195v-3.929c0-1.212-1.080-2.195-2.412-2.195z"></path>
<path fill="#fbfbfb" style="fill: var(--color1, #fbfbfb)" d="M6.25 11.582h-4.009c-1.237 0-2.24 0.983-2.24 2.195v3.929c0 1.212 1.003 2.195 2.24 2.195h4.009c1.237 0 2.24-0.983 2.24-2.195v-3.929c0-1.212-1.003-2.195-2.24-2.195z"></path>
<path fill="#fbfbfb" style="fill: var(--color1, #fbfbfb)" d="M17.766 22.978h-4.009c-1.237 0-2.24 0.983-2.24 2.195l-0 3.929c0 1.212 1.003 2.195 2.241 2.195h4.009c1.237 0 2.24-0.983 2.24-2.195v-3.929c0-1.213-1.003-2.195-2.24-2.195z"></path>
<path fill="#fbfbfb" style="fill: var(--color1, #fbfbfb)" d="M6.25 0.086h-4.009c-1.237 0-2.24 0.983-2.24 2.195v3.929c0 1.212 1.003 2.195 2.24 2.195h4.009c1.237 0 2.24-0.983 2.24-2.195v-3.929c0-1.212-1.003-2.195-2.24-2.195z"></path>
<path fill="#fbfbfb" style="fill: var(--color1, #fbfbfb)" d="M18.076 11.697h-4.009c-1.237 0-2.24 0.983-2.24 2.195v3.929c0 1.212 1.003 2.195 2.24 2.195h4.009c1.237 0 2.24-0.983 2.24-2.195v-3.929c0-1.212-1.003-2.195-2.24-2.195z"></path>
<path fill="#fbfbfb" style="fill: var(--color1, #fbfbfb)" d="M29.333 22.978h-4.010c-1.237 0-2.24 0.983-2.24 2.195v3.929c0 1.212 1.003 2.195 2.24 2.195h4.009c1.237 0 2.24-0.983 2.24-2.195v-3.929c0-1.213-1.003-2.195-2.24-2.195z"></path>
<path fill="#fbfbfb" style="fill: var(--color1, #fbfbfb)" d="M17.591 0.224h-4.009c-1.237 0-2.24 0.983-2.24 2.195v3.929c0 1.212 1.003 2.195 2.24 2.195h4.009c1.237 0 2.24-0.984 2.24-2.196v-3.929c0-1.212-1.003-2.195-2.24-2.195z"></path>
<path fill="#fbfbfb" style="fill: var(--color1, #fbfbfb)" d="M29.044 11.926h-4.010c-1.237 0-2.24 0.983-2.24 2.195v3.929c0 1.212 1.003 2.195 2.24 2.195h4.009c1.237 0 2.24-0.983 2.24-2.195v-3.929c0-1.212-1.003-2.195-2.24-2.195z"></path>
<path fill="#fbfbfb" style="fill: var(--color1, #fbfbfb)" d="M52.602 28c-7.576 0-12.602-4.704-12.602-12.032 0-7.168 4.955-11.968 12.422-11.968 6.283 0 10.699 3.296 11.345 8.256h-5.206c-0.503-2.848-2.908-4.448-6.139-4.448-4.524 0-7.216 3.264-7.216 8.16 0 5.376 3.016 8.224 7.396 8.224 3.806 0 6.247-1.92 6.498-4.8v-0.32h-7.001v-3.584h11.848v2.944c-0.215 5.728-4.739 9.568-11.345 9.568z"></path>
<path fill="#fbfbfb" style="fill: var(--color1, #fbfbfb)" d="M67.086 27.68v-23.36h12.602c6.427 0 8.976 2.784 8.976 6.816 0 3.616-2.872 5.344-6.211 5.76v0.096c2.154 0.48 3.124 1.536 4.021 3.616 1.149 2.624 1.328 5.76 2.8 6.88v0.192h-5.745c-1.221-1.088-1.508-4.512-2.154-6.592-0.646-2.144-2.046-2.4-4.667-2.4h-4.596v8.992h-5.026zM72.112 14.976h7.037c2.944 0 4.308-1.536 4.308-3.52 0-2.176-1.687-3.424-4.308-3.424h-7.037v6.944z"></path>
<path fill="#fbfbfb" style="fill: var(--color1, #fbfbfb)" d="M92.002 27.68v-23.36h17.916v3.712h-12.889v5.568h11.633v3.712h-11.633v6.56h13.069v3.808h-18.095z"></path>
<path fill="#fbfbfb" style="fill: var(--color1, #fbfbfb)" d="M113.587 27.68v-23.36h17.916v3.712h-12.889v5.568h11.633v3.712h-11.633v6.56h13.069v3.808h-18.095z"></path>
<path fill="#fbfbfb" style="fill: var(--color1, #fbfbfb)" d="M135.172 27.68v-23.36h6.104l8.688 12.896c2.657 3.904 2.98 5.184 2.98 5.184h0.108l-0.072-18.080h5.026v23.36h-6.139l-9.012-13.28c-2.046-3.008-2.585-4.832-2.585-4.832h-0.072v18.112h-5.026z"></path>
<path fill="#fbfbfb" style="fill: var(--color1, #fbfbfb)" d="M161.788 27.68v-4.736h5.242v4.736h-5.242z"></path>
<path fill="#fbfbfb" style="fill: var(--color1, #fbfbfb)" d="M170.805 27.68v-23.36h5.026v9.344h12.028v-9.344h5.026v23.36h-5.026v-10.304h-12.028v10.304h-5.026z"></path>
<path fill="#fbfbfb" style="fill: var(--color1, #fbfbfb)" d="M195.033 27.68l10.053-23.36h5.458l10.196 23.36h-5.386l-2.118-5.376h-10.878l-2.118 5.376h-5.207zM203.794 18.592h8.006l-2.334-5.76c-1.616-4.256-1.652-5.024-1.652-5.024h-0.072c0 0 0 0.768-1.614 5.024l-2.334 5.76z"></path>
<path fill="#fbfbfb" style="fill: var(--color1, #fbfbfb)" d="M222.88 27.68v-23.36h12.602c6.428 0 8.976 2.784 8.976 6.816 0 3.616-2.872 5.344-6.21 5.76v0.096c2.154 0.48 3.122 1.536 4.020 3.616 1.15 2.624 1.328 5.76 2.8 6.88v0.192h-5.744c-1.22-1.088-1.508-4.512-2.154-6.592-0.646-2.144-2.046-2.4-4.668-2.4h-4.594v8.992h-5.028zM227.908 14.976h7.036c2.944 0 4.308-1.536 4.308-3.52 0-2.176-1.688-3.424-4.308-3.424h-7.036v6.944z"></path>
<path fill="#fbfbfb" style="fill: var(--color1, #fbfbfb)" d="M253.126 27.68l-9.622-23.36h5.386c0 0 5.206 13.088 5.744 14.688 0.862 2.56 1.256 3.872 1.256 3.872h0.072c-0.036 0 0.36-1.312 1.256-3.872 0.576-1.6 5.566-14.688 5.566-14.688h5.206l-9.264 23.36h-5.6z"></path>
<path fill="#fbfbfb" style="fill: var(--color1, #fbfbfb)" d="M270.048 27.68v-23.36h17.916v3.712h-12.89v5.568h11.634v3.712h-11.634v6.56h13.070v3.808h-18.096z"></path>
<path fill="#fbfbfb" style="fill: var(--color1, #fbfbfb)" d="M300.622 28c-6.678 0-10.7-3.232-10.7-8.032h5.746c-0.072 2.72 1.938 4.224 4.954 4.224 3.196 0 4.702-1.12 4.702-2.784s-1.292-2.368-5.888-3.488c-4.2-1.024-8.796-2.24-8.796-7.040 0-3.808 3.734-6.88 9.622-6.88 6.068 0 9.946 3.040 9.946 7.328h-5.566c-0.036-2.272-1.758-3.52-4.38-3.52-2.548 0-4.236 1.152-4.236 2.688 0 1.824 1.4 2.4 5.062 3.328 5.422 1.344 9.802 1.888 9.802 7.104 0 4.192-4.272 7.072-10.268 7.072z"></path>
<path fill="#fbfbfb" style="fill: var(--color1, #fbfbfb)" d="M319.074 27.68v-19.552h-7.934v-3.808h20.86v3.808h-7.898v19.552h-5.028z"></path>
</symbol>
<symbol id="icon-x" viewBox="0 0 32 32">
<path fill="none" stroke="#fbfbfb" stroke-width="3" stroke-miterlimit="4" stroke-linecap="round" stroke-linejoin="round" style="stroke: var(--color1, #fbfbfb)" d="M24 8l-16 16"></path>
<path fill="none" stroke="#fbfbfb" stroke-width="3" stroke-miterlimit="4" stroke-linecap="round" stroke-linejoin="round" style="stroke: var(--color1, #fbfbfb)" d="M8 8l16 16"></path>
</symbol>

<!-- section2 icons -->

<symbol id="icon-first" viewBox="0 0 32 32" >
<path fill="#7a3145" d="M28.923 16c0 7.137-5.786 12.923-12.923 12.923s-12.923-5.786-12.923-12.923c0-7.137 5.786-12.923 12.923-12.923s12.923 5.786 12.923 12.923z"/>
<path fill="none" stroke="#d4bec4" stroke-linejoin="miter" stroke-linecap="butt" stroke-miterlimit="4" stroke-width="3.0769" d="M30.462 16c0 7.987-6.475 14.462-14.462 14.462s-14.462-6.475-14.462-14.462c0-7.987 6.475-14.462 14.462-14.462s14.462 6.475 14.462 14.462z"/>
<path fill="#fbfbfb" d="M17.625 11.353v8.954h-1.611v-7.374h-0.054l-2.091 1.34v-1.49l2.224-1.43h1.532z"/>
</symbol>


<symbol id="icon-second" viewBox="0 0 32 32">
<path fill="#7a3145" d="M28.923 16c0 7.137-5.786 12.923-12.923 12.923s-12.923-5.786-12.923-12.923c0-7.137 5.786-12.923 12.923-12.923s12.923 5.786 12.923 12.923z"/>
<path fill="none" stroke="#d4bec4" stroke-linejoin="miter" stroke-linecap="butt" stroke-miterlimit="4" stroke-width="3.0769" d="M30.462 16c0 7.987-6.475 14.462-14.462 14.462s-14.462-6.475-14.462-14.462c0-7.987 6.475-14.462 14.462-14.462s14.462 6.475 14.462 14.462z"/>
<path fill="#fbfbfb" d="M12.867 20.308v-1.166l3.113-3.053c0.293-0.3 0.537-0.567 0.733-0.799 0.2-0.232 0.351-0.457 0.451-0.673 0.1-0.22 0.15-0.455 0.15-0.703 0-0.28-0.064-0.523-0.192-0.727s-0.305-0.361-0.529-0.469c-0.22-0.108-0.473-0.162-0.757-0.162-0.296 0-0.555 0.060-0.775 0.18s-0.393 0.29-0.517 0.511c-0.12 0.22-0.18 0.483-0.18 0.787h-1.538c0-0.565 0.128-1.056 0.385-1.472 0.26-0.421 0.619-0.747 1.076-0.98s0.98-0.349 1.569-0.349c0.605 0 1.134 0.112 1.587 0.337s0.805 0.533 1.058 0.925c0.252 0.389 0.379 0.833 0.379 1.334 0 0.336-0.064 0.667-0.192 0.992-0.128 0.321-0.355 0.679-0.679 1.076-0.32 0.393-0.771 0.867-1.352 1.424l-1.538 1.569v0.066h3.894v1.352h-6.142z"/>
</symbol>

<symbol id="icon-third" width="52" height="52" viewBox="0 0 52 52" fill="none">
<circle cx="26" cy="26" r="21" fill="#7A3145"/>
<circle cx="26" cy="26" r="23.5" stroke="#7A3145" stroke-opacity="0.3" stroke-width="5"/>
<path d="M26.1328 33.1953C25.1107 33.1953 24.2025 33.0228 23.4082 32.6777C22.6139 32.3262 21.9857 31.8379 21.5234 31.2129C21.0677 30.5879 20.8301 29.8652 20.8105 29.0449H23.4668C23.4863 29.4421 23.6133 29.7871 23.8477 30.0801C24.0885 30.3665 24.4076 30.5911 24.8047 30.7539C25.2018 30.9102 25.6445 30.9883 26.1328 30.9883C26.6536 30.9883 27.1126 30.8971 27.5098 30.7148C27.9134 30.526 28.2292 30.2721 28.457 29.9531C28.6849 29.6276 28.7988 29.2533 28.7988 28.8301C28.7988 28.3874 28.6816 27.9967 28.4473 27.6582C28.2194 27.3197 27.8874 27.056 27.4512 26.8672C27.015 26.6784 26.4909 26.584 25.8789 26.584H24.5801V24.5527H25.8789C26.3737 24.5527 26.8132 24.4648 27.1973 24.2891C27.5814 24.1133 27.8809 23.8691 28.0957 23.5566C28.3105 23.2376 28.418 22.8665 28.418 22.4434C28.418 22.0332 28.3236 21.6751 28.1348 21.3691C27.9525 21.0632 27.6921 20.8255 27.3535 20.6562C27.015 20.487 26.6178 20.4023 26.1621 20.4023C25.7194 20.4023 25.306 20.4837 24.9219 20.6465C24.5443 20.8027 24.2383 21.0273 24.0039 21.3203C23.776 21.6133 23.6556 21.9648 23.6426 22.375H21.1133C21.1263 21.5612 21.3574 20.8451 21.8066 20.2266C22.2624 19.6081 22.8711 19.1263 23.6328 18.7812C24.3945 18.4297 25.2474 18.2539 26.1914 18.2539C27.1549 18.2539 27.9948 18.4362 28.7109 18.8008C29.4336 19.1589 29.9902 19.6439 30.3809 20.2559C30.778 20.8678 30.9766 21.5417 30.9766 22.2773C30.9766 23.0977 30.7357 23.7845 30.2539 24.3379C29.7721 24.8913 29.1374 25.2559 28.3496 25.4316V25.5391C29.3652 25.6823 30.1432 26.0599 30.6836 26.6719C31.2305 27.2839 31.5039 28.0456 31.5039 28.957C31.5039 29.7708 31.2728 30.5 30.8105 31.1445C30.3483 31.7826 29.7135 32.2839 28.9062 32.6484C28.099 33.013 27.1745 33.1953 26.1328 33.1953Z" fill="#FBFBFB"/>
</symbol>

<!-- section2 icons -->
</defs>
</svg>
